<svg xmlns="http://www.w3.org/2000/svg" viewBox="0 0 400 25.62"><defs><style>.cls-1{fill:#580b57;}</style></defs><g id="Layer_2" data-name="Layer 2"><g id="Layer_1-2" data-name="Layer 1"><path class="cls-1" d="M162.91,25.61a.26.26,0,0,1-.19-.13c-1.59-.49-3-1.27-4.62-1.3-1.25,0-2.5-1.16-3.72-1.9a1.5,1.5,0,0,0-2,.12c-.24.2-.48.53-.73.55-1.41.09-2.63,1.33-4.26.58a18.48,18.48,0,0,1-3.91-2.26c-1-.83-2.08-2.08-3.46-1.45-.4.18-.92-.14-1.37-.34-.22-.09-.38-.64-.57-.64-1.75,0-2.85-2-4.08-3.38-2.37-2.6-4.91-2.59-7.55-2.15-.42.07-.84.59-1.23.57a13.94,13.94,0,0,1-3.55-.63c-1.56-.56-3.32.82-4.47-1.09-.55.35-.93.8-1.28.77-1.3-.1-2.6-.44-3.91-.55a5.72,5.72,0,0,0-4.1,1c-1.94,1.42-3.86,3.36-6.23,1.86-1.25-.79-2.66-1-3.86-1.91C96.25,12.2,94.79,11,93,11a1.47,1.47,0,0,1-.69-.26C90,9.42,87.81,7.23,85.11,8.06c-.58.18-1.23-.3-1.84-.25-1.23.12-2.48.69-3.69.55A35.77,35.77,0,0,1,75,7a8,8,0,0,0-2.28-.19c-1.66.08-3.24,1.21-5,.71a3,3,0,0,0-2.53.56A2.42,2.42,0,0,1,62,8,2.52,2.52,0,0,0,58.9,8c-1.5,1-2.94,2.25-4.45,3.23a4,4,0,0,1-1.92.44,8.54,8.54,0,0,1-5.36-1.15A1.52,1.52,0,0,0,45,11.83c0,.74-.18.81-.5.92a8.94,8.94,0,0,1-1.59.52c-1.42.16-2.84.28-4.26.33a13.84,13.84,0,0,1-2.49-.17c-2.11-.32-3.88-2.6-6.07-2.54a8.31,8.31,0,0,1-2-.14c-1.51-.3-3-1-4.52-.95-2.25,0-4.33,1.41-6.4,2.72a6.4,6.4,0,0,1-2.57.75c-1.49.2-3-.16-4.4,1.18a2.78,2.78,0,0,1-2.12.38,23.07,23.07,0,0,1-3-.57c-.34-.07-.78-.06-1-.37C3,12,1.46,12.07,0,11.67,0,7.89,0,4.09.1.15Q200.14-.07,400,0c0,4.44,0,8.87-.09,13.47-.94-.52-1.8-.8-2.68,0a.29.29,0,0,1-.29.06c-1.23-.55-2.46-1.12-3.68-1.69-1.46-.7-2.9-1.74-4.39-2a7.06,7.06,0,0,1-4.61-2.64c-1.43-1.79-3.16-1.39-4.64-.45s-2.67,2.6-4.39,1.71a.55.55,0,0,0-.41.05c-1.22.4-2.43.84-3.66,1.22-1.06.35-2.14.62-3.2,1-1.37.45-2.81.68-4-.56a5.32,5.32,0,0,0-3.87-1.67,5.43,5.43,0,0,0-2,.43c-.76.23-1.5.64-2.26.8-1.06.23-2.21,0-3.17.54s-1.58.23-2.36-.45a2.28,2.28,0,0,0-1.64-.67c-2,.23-4,.65-6,1-1,.15-1.94.19-2.92.3a6.21,6.21,0,0,1-2.35.26c-1.72-.52-2.88.42-3.73,2.63-.56,1.43-1.32,2.24-2.49,2a2.09,2.09,0,0,0-1.73.22c-.9.71-1.67.42-2.28-.46-.79-1.13-1.74-.78-2.61-1s-1.75,0-2.6-.17c-1.71-.41-3.23-.32-4.34,2.13a1.53,1.53,0,0,1-1,.86c-1.2.14-2.41.38-3.54-.6s-2.36-1.55-3.8-1.05-2.86.07-4.21.56a7.31,7.31,0,0,1-4.14.14c-1.09-.22-2.16-.82-3.27,0-.27.2-.68-.05-1-.08l-1.84-.11a6.09,6.09,0,0,1-1.6-.05,30.35,30.35,0,0,0-3.55-1.28c-1.72-.3-3.46-.21-5-1.75a1.37,1.37,0,0,0-1.14-.49,3.33,3.33,0,0,1-3.11-.29c-.33-.24-1.05.15-1.38.62-1,1.43-1.58,1.63-2.73.57-.29-.26-.67-.67-.92-.55-1.84.8-3.73-.64-5.57.48a1.67,1.67,0,0,1-1.76-.07c-1.83-1.36-3.76-1.14-5.69-1.17a1.41,1.41,0,0,1-.92-.2c-1.36-1.13-2.61-.24-3.75.7-.66.54-1.12,1.12-2,1.18a27.27,27.27,0,0,0-5.82,1.46c-.48.15-.88.78-1.35,1a8.24,8.24,0,0,1-2.07.59c-.4.07-.84-.25-1.23-.16a32.34,32.34,0,0,0-6.45,1.72c-1.25.57-2,0-3-.8a1,1,0,0,0-.86-.14,13.91,13.91,0,0,0-1.46.49c-.36.13-.72.22-1.08.36-.71.3-1.42.62-2.13.95-1.06.48-2.12,1-3.16,1.52-.88.46-1.65,1.39-2.7,1.1s-2.22.21-3.34.53c-1.64.48-3.27,1.64-5,.78-.37-.18-.87.09-1.29.27-1.17.51-2.31,1.1-3.48,1.61-.17.08-.41,0-.6-.13A11.22,11.22,0,0,0,204.84,23a10.82,10.82,0,0,1-3.08-.91c-.66-.24-1.31-.92-1.93-.85-1.38.17-2.43-.66-3.42-1.95-.12-.15-.33-.15-.5-.21-.55-.2-1.27-.13-1.62-.65A1.49,1.49,0,0,0,192,18a4.61,4.61,0,0,1-1.64.64c-1.06.27-1.86,1.71-3.06,1.39-1.37-.37-2.78-.42-4.16-.81-.94-.26-1.85-1.74-2.72.2a.37.37,0,0,1-.43.15,30,30,0,0,1-3.63-1.16c-1.54-.67-2.56-.21-3.69,1.7a2.78,2.78,0,0,1-1.41,1.2c-1.06.36-2.16.49-3.23.74-1.93.43-3.55,1.87-5.11,3.56"/></g></g></svg>