<svg xmlns="http://www.w3.org/2000/svg" viewBox="0 0 400 25.62"><defs><style>.cls-1{fill:#580b57;}</style></defs><g id="Layer_2" data-name="Layer 2"><g id="Layer_1-2" data-name="Layer 1"><path class="cls-1" d="M162.91,0a.26.26,0,0,0-.19.13c-1.59.5-3,1.27-4.62,1.31-1.25,0-2.5,1.15-3.72,1.89a1.49,1.49,0,0,1-2-.12c-.24-.2-.48-.52-.73-.54-1.41-.09-2.63-1.33-4.26-.59a18.11,18.11,0,0,0-3.91,2.27c-1,.82-2.08,2.07-3.46,1.44-.4-.18-.92.14-1.37.34-.22.1-.38.64-.57.64-1.75,0-2.85,2-4.08,3.38-2.37,2.6-4.91,2.59-7.55,2.15-.42-.07-.84-.59-1.23-.56a13.5,13.5,0,0,0-3.55.62c-1.56.56-3.32-.81-4.47,1.1-.55-.36-.93-.81-1.28-.78-1.3.1-2.6.45-3.91.56a5.72,5.72,0,0,1-4.1-1c-1.94-1.42-3.86-3.36-6.23-1.86-1.25.79-2.66,1-3.86,1.92-1.54,1.15-3,2.39-4.78,2.34a1.58,1.58,0,0,0-.69.26c-2.33,1.33-4.51,3.52-7.21,2.69-.58-.18-1.23.31-1.84.25-1.23-.12-2.48-.69-3.69-.54A35.71,35.71,0,0,0,75,18.62a7.32,7.32,0,0,1-2.28.19c-1.66-.08-3.24-1.21-5-.71a3,3,0,0,1-2.53-.56,2.42,2.42,0,0,0-3.24,0,2.51,2.51,0,0,1-3.07.07c-1.5-1-2.94-2.26-4.45-3.24A4.23,4.23,0,0,0,52.53,14a8.48,8.48,0,0,0-5.36,1.16A1.52,1.52,0,0,1,45,13.79c0-.73-.18-.81-.5-.92a8.94,8.94,0,0,0-1.59-.52c-1.42-.16-2.84-.27-4.26-.32a14.81,14.81,0,0,0-2.49.16c-2.11.32-3.88,2.6-6.07,2.54a8.85,8.85,0,0,0-2,.14c-1.51.3-3,1-4.52,1-2.25-.05-4.33-1.42-6.4-2.72a6.26,6.26,0,0,0-2.57-.76c-1.49-.2-3,.17-4.4-1.17A2.69,2.69,0,0,0,8.1,10.8a21.44,21.44,0,0,0-3,.56c-.34.07-.78.06-1,.37C3,13.66,1.46,13.55,0,14c0,3.79,0,7.58.1,11.52q200,.23,399.9.15c0-4.43,0-8.87-.09-13.46-.94.52-1.8.79-2.68,0a.29.29,0,0,0-.29-.06c-1.23.56-2.46,1.12-3.68,1.7-1.46.69-2.9,1.74-4.39,2a7,7,0,0,0-4.61,2.64c-1.43,1.79-3.16,1.38-4.64.44s-2.67-2.59-4.39-1.71a.55.55,0,0,1-.41-.05c-1.22-.4-2.43-.83-3.66-1.22-1.06-.34-2.14-.62-3.2-1-1.37-.46-2.81-.69-4,.55a5.33,5.33,0,0,1-3.87,1.68,5.86,5.86,0,0,1-2-.43c-.76-.24-1.5-.65-2.26-.81-1.06-.22-2.21,0-3.17-.54s-1.58-.23-2.36.45a2.29,2.29,0,0,1-1.64.68c-2-.24-4-.66-6-1-1-.14-1.94-.19-2.92-.3a6.2,6.2,0,0,0-2.35-.25c-1.72.51-2.88-.43-3.73-2.64-.56-1.43-1.32-2.24-2.49-2a2.09,2.09,0,0,1-1.73-.22c-.9-.71-1.67-.42-2.28.46-.79,1.13-1.74.78-2.61,1s-1.75,0-2.6.17c-1.71.42-3.23.32-4.34-2.13a1.49,1.49,0,0,0-1-.85c-1.2-.15-2.41-.39-3.54.59s-2.36,1.56-3.8,1.05-2.86-.06-4.21-.55a7.31,7.31,0,0,0-4.14-.15c-1.09.23-2.16.83-3.27,0-.27-.2-.68.06-1,.08l-1.84.11a6.09,6.09,0,0,0-1.6.06,34.49,34.49,0,0,1-3.55,1.28c-1.72.3-3.46.2-5,1.74a1.35,1.35,0,0,1-1.14.49,3.33,3.33,0,0,0-3.11.29c-.33.24-1.05-.15-1.38-.62-1-1.43-1.58-1.63-2.73-.57-.29.27-.67.67-.92.55-1.84-.8-3.73.64-5.57-.48a1.67,1.67,0,0,0-1.76.07c-1.83,1.36-3.76,1.14-5.69,1.17a1.41,1.41,0,0,0-.92.2c-1.36,1.13-2.61.24-3.75-.69-.66-.55-1.12-1.13-2-1.19a27.27,27.27,0,0,1-5.82-1.46c-.48-.15-.88-.78-1.35-1a8.24,8.24,0,0,0-2.07-.59c-.4-.07-.84.26-1.23.16a32.34,32.34,0,0,1-6.45-1.72c-1.25-.57-2,0-3,.81a1,1,0,0,1-.86.14,14,14,0,0,1-1.46-.5c-.36-.13-.72-.21-1.08-.36-.71-.3-1.42-.61-2.13-.94-1.06-.49-2.12-1-3.16-1.52-.88-.47-1.65-1.4-2.7-1.11S222.08,4,221,3.67c-1.64-.48-3.27-1.64-5-.78-.37.19-.87-.08-1.29-.27-1.17-.51-2.31-1.09-3.48-1.61-.17-.08-.41,0-.6.14a11.11,11.11,0,0,1-5.72,1.5,10.54,10.54,0,0,0-3.08.92c-.66.23-1.31.91-1.93.84-1.38-.16-2.43.66-3.42,2-.12.15-.33.15-.5.21-.55.21-1.27.13-1.62.65a1.5,1.5,0,0,1-2.28.4A4.46,4.46,0,0,0,190.37,7c-1.06-.27-1.86-1.71-3.06-1.38-1.37.36-2.78.41-4.16.8-.94.26-1.85,1.75-2.72-.2A.37.37,0,0,0,180,6a30,30,0,0,0-3.63,1.16c-1.54.67-2.56.21-3.69-1.7a2.78,2.78,0,0,0-1.41-1.2A30.67,30.67,0,0,0,168,3.57c-1.93-.43-3.55-1.88-5.11-3.57"/></g></g></svg>