<svg id="Layer_1" data-name="Layer 1" xmlns="http://www.w3.org/2000/svg" viewBox="0 0 400 16.65"><defs><style>.cls-1{fill:#580b57;}</style></defs><path class="cls-1" d="M162.91,16.64a.31.31,0,0,1-.19-.08,25.84,25.84,0,0,0-4.62-.85,11.55,11.55,0,0,1-3.72-1.23,2.12,2.12,0,0,0-2,.08,2,2,0,0,1-.73.35c-1.41.06-2.63.87-4.26.38a21.47,21.47,0,0,1-3.91-1.47c-1-.54-2.08-1.35-3.46-.94a2.73,2.73,0,0,1-1.37-.22c-.22-.06-.38-.42-.57-.42-1.75,0-2.85-1.32-4.08-2.19-2.37-1.69-4.91-1.68-7.55-1.4-.42,0-.84.39-1.23.37a21,21,0,0,1-3.55-.41c-1.56-.36-3.32.53-4.47-.71-.55.23-.93.52-1.28.5-1.3-.06-2.6-.28-3.91-.36a8.26,8.26,0,0,0-4.1.68c-1.94.92-3.86,2.18-6.23,1.21-1.25-.52-2.66-.66-3.86-1.25A10.31,10.31,0,0,0,93,7.16,2.12,2.12,0,0,1,92.32,7C90,6.12,87.81,4.7,85.11,5.24c-.58.11-1.23-.2-1.84-.16a25.86,25.86,0,0,1-3.69.35C78,5.31,76.52,4.81,75,4.55a10.87,10.87,0,0,0-2.28-.12c-1.66.05-3.24.78-5,.46a4.33,4.33,0,0,0-2.53.36,3.47,3.47,0,0,1-3.24,0,3.62,3.62,0,0,0-3.07-.05c-1.5.67-2.94,1.47-4.45,2.11a6,6,0,0,1-1.92.28,12.41,12.41,0,0,1-5.36-.75c-.87-.33-2.11.14-2.16.87,0,.48-.18.52-.5.6a12.84,12.84,0,0,1-1.59.33c-1.42.11-2.84.18-4.26.22a22.93,22.93,0,0,1-2.49-.11C34.06,8.52,32.29,7,30.1,7.08a13.2,13.2,0,0,1-2-.09,32.07,32.07,0,0,0-4.52-.62,17.88,17.88,0,0,0-6.4,1.76,8.49,8.49,0,0,1-2.57.49c-1.49.14-3-.1-4.4.77a4.1,4.1,0,0,1-2.12.25c-1-.05-2-.23-3-.37-.34,0-.78,0-1-.24C3,7.78,1.46,7.84,0,7.59,0,5.13,0,2.66.1.1Q200.14-.05,400,0c0,2.88,0,5.77-.09,8.75a2.88,2.88,0,0,0-2.68,0,.48.48,0,0,1-.29,0l-3.68-1.1a27.24,27.24,0,0,0-4.39-1.32,8.54,8.54,0,0,1-4.61-1.72,4.4,4.4,0,0,0-4.64-.29c-1.44.59-2.67,1.69-4.39,1.11a.74.74,0,0,0-.41,0c-1.22.26-2.43.54-3.66.79-1.06.22-2.14.4-3.2.63a4.92,4.92,0,0,1-4-.36,7,7,0,0,0-3.87-1.09,8.78,8.78,0,0,0-2,.28c-.76.15-1.5.42-2.26.52a14.8,14.8,0,0,0-3.17.36,2.46,2.46,0,0,1-2.36-.3,3.2,3.2,0,0,0-1.64-.44c-2,.16-4,.43-6,.63-1,.1-1.94.13-2.92.2a9.46,9.46,0,0,1-2.35.16,3.23,3.23,0,0,0-3.73,1.71,2.34,2.34,0,0,1-2.49,1.3,3.14,3.14,0,0,0-1.73.14,1.86,1.86,0,0,1-2.28-.3c-.79-.73-1.74-.5-2.61-.67s-1.75,0-2.6-.11c-1.71-.27-3.23-.2-4.34,1.39a1.55,1.55,0,0,1-1,.55,5.9,5.9,0,0,1-3.54-.38,5.11,5.11,0,0,0-3.8-.69c-1.36.31-2.86.05-4.21.37a11.32,11.32,0,0,1-4.14.09c-1.09-.15-2.16-.54-3.27,0-.27.13-.68,0-1,0l-1.84-.07a10.59,10.59,0,0,1-1.6,0c-1.2-.24-2.36-.69-3.55-.83-1.72-.2-3.46-.13-5-1.14a1.84,1.84,0,0,0-1.14-.32,4.89,4.89,0,0,1-3.11-.18,1.6,1.6,0,0,0-1.38.4c-1,.93-1.58,1.06-2.73.37-.29-.17-.67-.43-.92-.36-1.84.52-3.73-.41-5.57.32A2.48,2.48,0,0,1,268,8.34c-1.83-.89-3.76-.74-5.69-.76a2,2,0,0,1-.92-.13c-1.36-.74-2.61-.16-3.75.45a4.22,4.22,0,0,1-2,.77,40.1,40.1,0,0,0-5.82.95c-.48.1-.88.5-1.35.64a11.28,11.28,0,0,1-2.07.39c-.4,0-.84-.17-1.23-.11a47.23,47.23,0,0,0-6.45,1.12,3.35,3.35,0,0,1-3-.52,1.38,1.38,0,0,0-.86-.09c-.49.06-1,.21-1.46.32s-.72.14-1.08.23c-.71.2-1.42.4-2.13.62-1.06.31-2.12.62-3.16,1-.88.31-1.65.91-2.7.72a9.27,9.27,0,0,0-3.34.35c-1.64.31-3.27,1.06-5,.5a2.49,2.49,0,0,0-1.29.18c-1.17.33-2.31.71-3.48,1.05a1.08,1.08,0,0,1-.6-.09,16.12,16.12,0,0,0-5.72-1,15.11,15.11,0,0,1-3.08-.6,7.39,7.39,0,0,0-1.93-.54,4.55,4.55,0,0,1-3.42-1.27,1.27,1.27,0,0,0-.5-.14c-.55-.13-1.27-.08-1.62-.42A2,2,0,0,0,192,11.7a6,6,0,0,1-1.64.42c-1.06.18-1.86,1.11-3.06.9-1.37-.23-2.78-.27-4.16-.52-.94-.17-1.85-1.14-2.72.13a.5.5,0,0,1-.43.1c-1.21-.24-2.45-.42-3.63-.76a3.2,3.2,0,0,0-3.69,1.11,2.78,2.78,0,0,1-1.41.78c-1.06.23-2.16.32-3.23.47a12,12,0,0,0-5.11,2.32"/></svg>