<svg id="Layer_1" data-name="Layer 1" xmlns="http://www.w3.org/2000/svg" viewBox="0 0 400 24.95"><defs><style>.cls-1{fill:#580b57;}</style></defs><path class="cls-1" d="M162.91,24.93a.26.26,0,0,1-.19-.12c-1.59-.5-3-1.27-4.62-1.31-1.25,0-2.5-1.15-3.72-1.89a1.49,1.49,0,0,0-2,.12c-.24.2-.48.52-.73.54-1.41.09-2.63,1.33-4.26.59a18.11,18.11,0,0,1-3.91-2.27c-1-.82-2.08-2.07-3.46-1.45-.4.19-.92-.13-1.37-.33-.22-.1-.38-.64-.57-.64-1.75,0-2.85-2-4.08-3.38-2.37-2.6-4.91-2.59-7.55-2.15-.42.06-.84.59-1.23.56a13.5,13.5,0,0,1-3.55-.62c-1.56-.56-3.32.81-4.47-1.1-.55.35-.93.81-1.28.78-1.3-.1-2.6-.45-3.91-.56a5.72,5.72,0,0,0-4.1,1c-1.94,1.42-3.86,3.36-6.23,1.86-1.25-.79-2.66-1-3.86-1.92-1.54-1.15-3-2.4-4.78-2.34a1.58,1.58,0,0,1-.69-.26C90,8.75,87.81,6.56,85.11,7.39c-.58.18-1.23-.31-1.84-.25-1.23.12-2.48.69-3.69.54A35.71,35.71,0,0,1,75,6.33a7.32,7.32,0,0,0-2.28-.19c-1.66.08-3.24,1.21-5,.71a3,3,0,0,0-2.53.55,2.41,2.41,0,0,1-3.24,0A2.51,2.51,0,0,0,58.9,7.3c-1.5,1-2.94,2.26-4.45,3.24a4.23,4.23,0,0,1-1.92.44,8.48,8.48,0,0,1-5.36-1.16A1.52,1.52,0,0,0,45,11.15c0,.74-.18.82-.5.93a8.15,8.15,0,0,1-1.59.51q-2.13.25-4.26.33a14.81,14.81,0,0,1-2.49-.16c-2.11-.32-3.88-2.6-6.07-2.54a8.85,8.85,0,0,1-2-.14c-1.51-.3-3-1-4.52-1-2.25.05-4.33,1.42-6.4,2.72a6.09,6.09,0,0,1-2.57.75c-1.49.21-3-.16-4.4,1.18a2.69,2.69,0,0,1-2.12.38,21.44,21.44,0,0,1-3-.56c-.34-.07-.78-.06-1-.37C3,11.29,1.46,11.4,0,11,0,7.21,0,3.42.1-.52q200-.23,399.9-.15c0,4.43,0,8.87-.09,13.46-.94-.52-1.8-.79-2.68,0a.29.29,0,0,1-.29.06c-1.23-.56-2.46-1.12-3.68-1.7-1.46-.69-2.9-1.74-4.39-2a7,7,0,0,1-4.61-2.64c-1.43-1.79-3.16-1.38-4.64-.44S377,8.66,375.23,7.78a.55.55,0,0,0-.41,0c-1.22.4-2.43.83-3.66,1.22-1.06.34-2.14.62-3.2,1-1.37.45-2.81.69-4-.55a5.33,5.33,0,0,0-3.87-1.68,5.86,5.86,0,0,0-2,.43c-.76.24-1.5.65-2.26.81-1.06.22-2.21,0-3.17.54s-1.58.22-2.36-.46a2.32,2.32,0,0,0-1.64-.67c-2,.24-4,.66-6,1-1,.14-1.94.19-2.92.3a6.4,6.4,0,0,1-2.35.25c-1.72-.51-2.88.43-3.73,2.63-.56,1.44-1.32,2.25-2.49,2a2.09,2.09,0,0,0-1.73.22c-.9.71-1.67.42-2.28-.46-.79-1.13-1.74-.78-2.61-1s-1.75,0-2.6-.17c-1.71-.42-3.23-.32-4.34,2.13a1.49,1.49,0,0,1-1,.85c-1.2.15-2.41.39-3.54-.59s-2.36-1.56-3.8-1-2.86.06-4.21.55a7.31,7.31,0,0,1-4.14.15c-1.09-.23-2.16-.83-3.27,0-.27.2-.68-.06-1-.08L294.72,15a6.09,6.09,0,0,1-1.6-.06,32.29,32.29,0,0,0-3.55-1.28c-1.72-.3-3.46-.2-5-1.74a1.35,1.35,0,0,0-1.14-.49,3.33,3.33,0,0,1-3.11-.29c-.33-.24-1.05.15-1.38.61-1,1.44-1.58,1.64-2.73.58-.29-.27-.67-.67-.92-.55-1.84.8-3.73-.64-5.57.48a1.69,1.69,0,0,1-1.76-.07C266.13,10.8,264.2,11,262.27,11a1.41,1.41,0,0,1-.92-.2c-1.36-1.13-2.61-.24-3.75.69-.66.54-1.12,1.13-2,1.19a27.27,27.27,0,0,0-5.82,1.46c-.48.15-.88.77-1.35,1a8.24,8.24,0,0,1-2.07.59c-.4.06-.84-.26-1.23-.16a32.34,32.34,0,0,0-6.45,1.72c-1.25.57-2,.05-3-.81a1,1,0,0,0-.86-.14,14,14,0,0,0-1.46.5c-.36.12-.72.21-1.08.36-.71.3-1.42.61-2.13.94-1.06.49-2.12,1-3.16,1.52-.88.47-1.65,1.4-2.7,1.11s-2.22.21-3.34.53c-1.64.47-3.27,1.64-5,.77-.37-.18-.87.09-1.29.27-1.17.52-2.31,1.1-3.48,1.62-.17.08-.41,0-.6-.14a11.11,11.11,0,0,0-5.72-1.5,10.54,10.54,0,0,1-3.08-.92c-.66-.23-1.31-.91-1.93-.84-1.38.16-2.43-.66-3.42-1.95-.12-.15-.33-.15-.5-.21-.55-.21-1.27-.13-1.62-.65a1.5,1.5,0,0,0-2.28-.4,4.46,4.46,0,0,1-1.64.65c-1.06.27-1.86,1.71-3.06,1.38-1.37-.36-2.78-.41-4.16-.8-.94-.26-1.85-1.75-2.72.2a.39.39,0,0,1-.43.15,30,30,0,0,1-3.63-1.16c-1.54-.67-2.56-.21-3.69,1.69a2.75,2.75,0,0,1-1.41,1.21,30.67,30.67,0,0,1-3.23.73c-1.93.43-3.55,1.88-5.11,3.57"/></svg>