<?xml version="1.0" encoding="utf-8"?>
<!-- Generator: Adobe Illustrator 27.3.1, SVG Export Plug-In . SVG Version: 6.00 Build 0)  -->
<svg version="1.1" id="Layer_1" xmlns="http://www.w3.org/2000/svg" xmlns:xlink="http://www.w3.org/1999/xlink" x="0px" y="0px"
	 viewBox="0 0 61.21 60.92" style="enable-background:new 0 0 61.21 60.92;" xml:space="preserve">
<style type="text/css">
	.st0{fill:#FFFFFF;}
</style>
<g transform="translate(0.000000,128.000000) scale(0.100000,-0.100000)">
	<path class="st0" d="M269.7,1276.6c-26.77-8.13-60.73-34.91-75.55-59.3c-10.99-17.7-14.83-30.13-16.26-53.56
		c-2.87-44.47,1.43-58.82,30.13-102.34l26.3-39.69v-45.91c0-46.39,0-46.39,15.78-61.69c15.3-14.83,17.21-15.3,56.43-15.3
		c39.69,0,41.12,0.48,55.95,15.78c14.83,15.3,15.3,16.26,15.3,61.69v46.39l22,32.51c30.13,43.52,35.38,57.86,35.38,96.12
		c0,53.56-23.91,91.33-73.64,116.68C339.51,1278.99,292.65,1283.77,269.7,1276.6z M354.34,1244.08
		c16.26-8.13,31.08-21.04,40.17-33.95c13.39-18.65,14.35-23.91,14.35-60.25v-39.69l-24.39-35.38
		c-13.39-19.13-25.82-39.69-27.74-45.42c-2.87-8.61-7.17-10.99-20.08-10.99h-16.26v51.64c0,45.91,0.95,53.08,9.56,60.73
		c19.13,17.21,8.61,37.78-11.96,24.39c-10.99-7.17-12.91-7.17-23.91,0c-20.57,13.39-31.08-7.17-11.96-24.39
		c8.61-7.65,9.56-14.83,9.56-60.73v-51.64h-16.26c-12.91,0-17.21,2.39-20.08,10.99c-1.92,5.74-14.35,26.3-27.74,45.42l-24.39,35.38
		v39.69c0,36.35,0.95,41.6,14.35,60.25c19.13,26.77,57.38,47.34,88.46,47.34C321.81,1257.48,336.64,1253.17,354.34,1244.08z
		 M353.85,982.52v-11.96h-47.82h-47.81v11.96v11.96h47.82h47.82v-11.96H353.85z M353.85,943.31c0-1.43-3.35-7.17-8.13-11.96
		c-15.78-17.7-87.51-8.61-87.51,11.48c0,1.92,21.52,3.82,47.82,3.82C332.34,946.66,353.85,945.22,353.85,943.31z"/>
	<path class="st0" d="M130.54,1258.91c-11.96-4.3-6.22-18.65,10.52-27.26c18.17-10.04,30.13-5.74,24.87,8.61
		C162.58,1249.34,138.19,1261.78,130.54,1258.91z"/>
	<path class="st0" d="M459.53,1252.21c-14.83-9.09-19.13-20.08-9.56-26.3c7.65-4.3,37.78,13.39,37.78,22.47
		C487.74,1260.82,476.26,1262.25,459.53,1252.21z"/>
	<path class="st0" d="M98.98,1155.62c-4.79-11.96,4.3-18.17,23.43-16.73c14.83,0.95,18.65,3.35,18.65,10.99
		c0,7.64-3.82,10.04-19.6,10.99C108.07,1161.83,100.9,1160.4,98.98,1155.62z"/>
	<path class="st0" d="M470.52,1154.66c-4.3-11.48,2.39-16.73,22-16.73c17.7,0,24.39,5.74,20.57,18.17
		C509.74,1164.23,473.87,1163.75,470.52,1154.66z"/>
	<path class="st0" d="M137.72,1067.15c-14.35-8.61-17.7-22-6.69-26.3c10.04-3.82,37.3,14.83,35.38,24.39
		C164.49,1076.24,153.5,1076.72,137.72,1067.15z"/>
	<path class="st0" d="M448.05,1072.42c-7.17-6.69-2.87-16.26,11.48-24.87c8.61-5.26,18.17-8.13,21.52-6.69
		c11.48,4.3,7.17,17.7-8.13,26.77C457.14,1076.72,452.84,1077.19,448.05,1072.42z"/>
	<path class="st0" d="M126.72,850.54c-29.64-11.96-58.82-20.57-76.51-22c-32.99-2.87-40.65-9.56-40.65-35.38
		c0-10.04-1.92-19.6-4.79-21.04C2.39,770.69,0,754.43,0,736.26c0-25.34,1.92-32.99,7.65-35.38c4.3-1.43,61.69-2.87,127.68-2.87
		h120.02l13.86-12.91c19.6-19.13,54.03-19.13,73.64,0l13.86,12.91h120.02c65.99,0,123.37,1.43,127.68,2.87
		c5.74,2.39,7.65,10.04,7.65,35.38c0,18.17-2.39,34.43-4.79,35.86c-2.39,1.43-4.79,10.99-4.79,21.04c0,25.82-7.65,32.51-40.65,35.38
		c-17.7,1.43-47.34,10.04-76.98,22c-75.55,30.61-119.07,26.77-159.24-13.39l-19.6-19.6l-18.17,18.17
		C246.26,877.32,202.27,881.14,126.72,850.54z M250.57,834.76c22.47-12.91,41.12-36.35,41.12-50.69c0-9.56-2.39-9.56-126.72-9.56
		H38.25v14.35c0,11.96,1.92,14.35,11.48,14.35c15.3,0,68.38,16.73,99.47,31.08C183.62,850.54,223.79,850.54,250.57,834.76z
		 M462.88,834.28c31.08-14.35,84.16-31.08,99.47-31.08c9.56,0,11.48-2.39,11.48-14.35v-14.35H447.1H320.38v10.99
		c0.48,13.39,21.04,37.78,43.04,50.69C387.33,850.54,429.88,849.58,462.88,834.28z M292.65,741.04c7.65-12.43,19.13-12.43,26.77,0
		c5.74,9.09,10.99,9.56,137.24,9.56h131.5v-14.35V721.9H465.75H343.33l-13.39-14.35c-7.17-7.65-18.17-14.35-23.91-14.35
		c-5.74,0-16.73,6.69-23.91,14.35l-13.39,14.35H146.32H23.91v14.35v14.35h131.5C281.64,750.61,286.91,750.13,292.65,741.04z"/>
</g>
</svg>
