<?xml version="1.0" encoding="utf-8"?>
<!-- Generator: Adobe Illustrator 27.3.1, SVG Export Plug-In . SVG Version: 6.00 Build 0)  -->
<svg version="1.1" id="Layer_1" xmlns="http://www.w3.org/2000/svg" xmlns:xlink="http://www.w3.org/1999/xlink" x="0px" y="0px"
	 viewBox="0 0 45.1 56.91" style="enable-background:new 0 0 45.1 56.91;" xml:space="preserve">
<style type="text/css">
	.st0{fill:#FFFFFF;}
</style>
<g transform="translate(0.000000,512.000000) scale(0.100000,-0.100000)">
	<path class="st0" d="M-1142.86,5168.26c-5.01-1.33-12.35-4.89-17.02-8.45c-4.23-3.34-11.79-6.01-16.68-6.01
		c-2,0-7.01,0.78-11.23,1.78c-10.9,2.56-19.91,1.56-30.03-3.45c-8.01-3.89-12.35-8.01-20.69-19.35c-4.45-6.23-11.46-9.9-21.47-11.35
		c-19.24-2.67-34.7-16.57-38.37-34.37c-2.45-12.01-7.67-18.8-18.69-24.36c-6.9-3.56-14.68-11.79-18.58-19.58
		c-3.11-6.45-3.23-7.12-3.34-23.91c0-19.24-0.56-21.13-7.23-29.14c-13.79-16.46-15.46-33.37-5.34-53.84
		c5.45-11.01,6.01-17.8,2.22-28.7c-6.34-18.02-0.67-36.37,15.57-50.61c8.45-7.45,10.46-11.79,12.01-26.14
		c2.22-21.47,12.12-33.59,33.37-40.82c6.67-2.34,13.46-7.01,13.46-9.23c0-0.78-10.57-26.92-23.47-58.06
		c-22.13-53.39-23.47-56.95-23.02-62.4c0.67-7.23,4.89-13.13,11.79-16.13c6.67-3,8.9-2.56,39.6,6.9c19.13,5.9,25.81,7.56,26.92,6.56
		c0.78-0.67,7.01-11.79,13.9-24.69c6.79-13.01,13.68-25.03,15.35-26.81c7.67-8.34,20.36-8.23,28.25,0.11
		c2.11,2.34,10.79,21.91,27.36,61.96c13.46,32.26,24.69,58.95,25.03,59.29c0.33,0.44,1,0.44,1.33,0
		c0.33-0.33,11.57-27.03,24.92-59.29c16.68-40.15,25.36-59.62,27.47-61.96c7.9-8.34,20.58-8.45,28.25-0.11
		c1.67,1.78,8.56,13.79,15.35,26.81c6.9,12.9,13.13,24.03,14.02,24.8c1.11,0.89,7.45-0.67,26.92-6.67c30.7-9.45,32.81-9.9,39.49-6.9
		c6.9,3,11.12,8.9,11.79,16.13c0.44,5.45-0.89,9.01-23.02,62.4c-12.9,31.14-23.47,57.28-23.47,58.06c0,2.22,6.79,6.9,13.46,9.23
		c9.68,3.34,15.35,6.56,20.91,12.24c7.79,7.67,11.12,15.35,12.46,28.59c1.56,14.35,3.56,18.69,12.01,26.14
		c16.46,14.35,21.58,31.37,15.46,50.61c-3.67,11.79-3.23,17.57,2.45,28.81c10.01,20.36,8.34,37.37-5.45,53.72
		c-6.9,8.12-8.01,12.57-7.23,28.48c0.67,11.9,0.44,14.24-1.56,20.02c-3,8.34-9.79,17.24-16.24,21.36
		c-2.78,1.78-7.34,4.67-10.12,6.34c-6.12,3.89-10.12,10.34-12.68,20.58c-4.67,19.02-19.02,31.92-38.37,34.59
		c-9.9,1.45-17.02,5.12-21.47,11.35c-8.34,11.35-12.68,15.46-20.69,19.35c-10.12,5.01-19.13,6.01-30.03,3.45
		c-4.23-1-9.23-1.78-11.23-1.78c-5.01,0-12.46,2.78-17.02,6.23c-7.12,5.45-15.46,8.45-24.58,8.9
		C-1134.74,5169.15-1140.52,5168.82-1142.86,5168.26z M-1123.51,5151.02c2.56-1,6.45-3,8.45-4.56c11.01-8.45,23.47-10.79,39.26-7.56
		c8.56,1.67,10.9,1.78,15.35,0.56c7.56-2,12.9-5.9,17.91-13.24c7.67-11.46,16.91-17.69,29.59-20.13
		c20.69-4.12,26.25-8.68,30.59-25.14c4-15.13,11.46-25.03,23.47-31.14c6.56-3.45,11.9-8.79,14.46-14.57c1.78-3.78,2-7.12,1.78-20.58
		c-0.22-14.91,0-16.46,2.56-22.14c1.45-3.34,4.78-8.68,7.34-11.79c7.45-9.12,8.68-12.24,8.68-21.02c0-6.9-0.44-8.79-4.67-16.68
		c-7.12-13.9-8.12-25.47-3.11-39.38c2.45-6.56,2.22-16.24-0.33-21.91c-1.22-2.56-4.23-6.56-6.9-8.9
		c-14.9-13.35-18.13-19.35-20.36-37.15c-2.22-17.57-7.34-25.03-20.13-28.92c-13.9-4.23-23.91-12.79-29.81-25.58
		c-4.78-10.12-7.67-13.57-14.35-17.24c-5.12-2.78-6.9-3.11-18.02-3.34c-17.13-0.33-23.36-2.78-35.7-13.9
		c-4.12-3.78-9.23-7.56-11.23-8.45c-6.34-2.67-15.24-2-24.69,2c-7.56,3.11-9.79,3.56-19.13,3.56s-11.57-0.44-19.13-3.56
		c-9.45-4-18.35-4.67-24.69-2c-2,0.89-7.12,4.67-11.23,8.45c-12.35,11.12-18.58,13.57-35.7,13.9c-11.12,0.22-12.9,0.56-18.02,3.34
		c-6.67,3.67-9.57,7.12-14.35,17.24c-5.9,12.79-15.91,21.36-29.81,25.58c-12.79,3.89-17.91,11.23-20.02,28.81
		c-2.22,17.8-5.45,23.69-20.47,37.37c-2.67,2.45-5.78,6.45-6.9,8.9c-2.56,5.56-2.67,15.35-0.33,21.8c5.01,13.9,4,25.47-3.11,39.38
		c-4.23,7.9-4.67,9.79-4.67,16.68c0,8.79,1.22,11.9,8.68,21.02c2.56,3.11,5.9,8.45,7.34,11.79c2.56,5.67,2.78,7.23,2.56,22.14
		c-0.22,13.46,0,16.8,1.78,20.58c2.56,5.78,7.9,11.12,14.46,14.57c11.9,6.12,19.47,16.02,23.47,31.03
		c2.56,9.45,4.67,13.24,10.23,17.91c4.45,3.78,7.12,4.78,17.57,6.56c14.46,2.56,24.25,8.9,32.37,20.91
		c5.01,7.34,10.34,11.23,17.91,13.24c4.45,1.22,6.79,1.11,15.35-0.56c15.79-3.23,28.25-0.89,39.26,7.56
		C-1142.19,5152.47-1132.4,5154.14-1123.51,5151.02z M-1262.32,4759.6c1.11-2.89,11.79-10.46,18.24-12.9
		c5.01-2,9.12-2.56,18.69-2.67c14.46-0.33,18.02-1.67,28.59-11.46c3.67-3.34,9.45-7.45,13.01-9.12c5.45-2.56,7.67-2.89,17.69-2.89
		c9.68,0,11.23-0.22,10.79-1.67c-3.89-10.46-41.38-100-42.38-101.11c-0.78-0.78-2.11-1.22-3-0.89s-7.23,11.46-14.24,24.8
		c-7.01,13.24-14.35,25.81-16.24,27.81c-4.12,4.12-11.12,6.56-16.35,5.56c-2-0.33-14.9-4.23-28.92-8.56
		c-14.02-4.23-26.14-7.56-27.03-7.12c-1.11,0.33-1.56,1.56-1.22,3.11c0.78,3.78,40.27,98.66,41.04,98.66
		C-1263.21,4761.16-1262.66,4760.49-1262.32,4759.6z M-980.69,4713.11c10.9-26.47,20.13-49.28,20.36-50.61
		c0.33-1.56-0.11-2.78-1.11-3.11c-1-0.44-13.01,2.89-26.92,7.12c-13.9,4.34-26.92,8.12-28.92,8.45c-5.45,1.11-12.46-1.22-16.57-5.45
		c-1.89-2-9.34-14.57-16.24-27.92c-7.01-13.24-13.46-24.47-14.35-24.69c-0.78-0.33-2.11,0.11-2.89,0.89
		c-1,1.11-38.49,90.65-42.38,101.11c-0.44,1.45,1.11,1.67,10.79,1.67c10.12,0,12.24,0.33,18.02,3.11c3.56,1.67,9.57,5.9,13.46,9.45
		c10.01,9.34,13.13,10.57,27.81,10.9c9.57,0.11,13.68,0.67,18.69,2.67c6.45,2.45,17.13,10.01,18.24,12.9
		c0.33,0.89,0.89,1.56,1.33,1.56C-1000.93,4761.16-991.7,4739.47-980.69,4713.11z"/>
	<path class="st0" d="M-1159.21,5108.87c-51.72-9.23-94.21-39.49-119.8-85.2c-8.56-15.13-17.91-44.38-18.46-57.51
		c-0.22-5.23,0.11-6.34,2.45-8.23c3.34-2.67,8.45-2.67,11.01-0.11c1.33,1.33,2.78,5.9,4,12.57
		c11.01,60.51,55.28,106.34,116.9,120.69c7.12,1.67,13.24,2.11,31.14,2.11c20.47,0,23.14-0.22,34.26-3.11
		c43.94-11.01,79.64-39.49,99.66-79.53c5.01-9.9,10.79-27.81,13.01-40.15c1.22-6.67,2.67-11.23,4-12.57
		c2.56-2.56,7.67-2.56,11.01,0.11c3.23,2.56,3.23,7.01,0.44,20.47c-13.35,64.4-63.74,114.68-129.58,129.25
		C-1110.49,5110.2-1147.64,5110.87-1159.21,5108.87z"/>
	<path class="st0" d="M-1137.52,5063.71c-6.67-2-8.79-5.78-20.58-38.37c-6.23-17.13-11.68-31.59-12.12-32.03
		c-0.44-0.44-15.13-1.33-32.48-2c-17.35-0.56-33.26-1.33-35.26-1.67c-5.12-0.78-11.01-6.34-12.57-11.79c-1-3.67-0.78-5.45,0.67-9.45
		c1.67-4.34,4.78-7.12,29.03-26.03c14.9-11.68,27.14-21.58,27.14-21.91c0-0.44-4-14.79-8.9-31.92c-4.89-17.13-8.9-33.15-8.9-35.59
		c0-10.34,10.34-17.91,19.91-14.68c2.22,0.78,16.24,9.57,30.92,19.47c14.79,9.9,27.47,18.02,28.14,18.02
		c0.67,0,13.35-8.12,28.14-18.02c14.68-9.9,28.7-18.69,30.92-19.47c9.57-3.23,19.91,4.34,19.91,14.68c0,2.45-4,18.46-8.9,35.59
		c-4.89,17.13-8.9,31.48-8.9,31.81c0,0.44,12.24,10.34,27.03,21.91c28.81,22.47,30.37,24.14,30.14,32.81
		c-0.22,4.67-2.67,8.79-7.56,12.35c-2.78,2.11-5.34,2.45-27.7,3.23c-13.57,0.44-29.48,1.22-35.26,1.67l-10.46,0.78l-11.23,30.7
		c-6.23,16.91-12.12,32.03-13.13,33.59C-1123.28,5063.15-1130.74,5065.71-1137.52,5063.71z M-1120.84,5014.65
		c6.01-16.57,11.9-31.37,13.13-32.81c4.23-5.45,6.34-5.9,40.93-7.12c18.02-0.67,33.15-1.33,33.7-1.56
		c0.56-0.11-10.79-9.45-25.25-20.69c-14.35-11.35-27.03-21.91-27.92-23.58c-1-1.56-1.78-4.78-1.78-7.23
		c0-2.34,3.89-18.02,8.79-34.82c4.78-16.8,8.56-30.7,8.45-30.92c-0.22-0.22-12.46,7.67-27.25,17.57
		c-14.9,10.01-28.7,18.58-30.7,19.24c-2.56,0.78-5.01,0.78-7.45,0c-2-0.56-15.79-9.23-30.7-19.13
		c-14.79-9.9-27.14-17.91-27.36-17.69c-0.11,0.22,3.67,14.13,8.45,30.92c4.89,16.8,8.79,32.59,8.79,35.04s-0.89,5.78-2,7.45
		s-13.68,12.12-27.92,23.36c-14.24,11.12-25.47,20.35-25.03,20.58c0.56,0.11,15.68,0.78,33.7,1.45c34.59,1.22,36.71,1.67,40.93,7.12
		c1.22,1.45,7.12,16.24,13.13,32.81s11.23,30.14,11.68,30.14C-1132.07,5044.8-1126.84,5031.23-1120.84,5014.65z"/>
	<path class="st0" d="M-1294.58,4930.9c-3.67-3.23-3.78-7.45-0.44-22.58c7.12-31.7,21.36-57.28,45.05-81.09
		c24.58-24.47,51.05-38.82,85.65-46.27c16.13-3.45,47.5-3.45,63.62,0c34.7,7.45,60.95,21.69,85.65,46.27
		c23.69,23.69,37.6,48.72,44.83,80.75c3.89,17.35,3.89,18.58,0.22,22.36c-3.89,3.89-6.79,4.12-10.57,0.78
		c-2.34-2.11-3.11-4.56-4.56-12.9c-4.78-28.14-18.8-55.73-39.26-77.19c-20.47-21.36-46.16-35.82-76.19-42.82
		c-10.9-2.56-14.79-3-31.92-3s-21.02,0.44-31.92,3c-28.14,6.56-51.5,19.02-71.97,38.6c-22.25,21.25-38.6,51.83-43.6,81.64
		c-1.33,8.12-2.22,10.57-4.45,12.68C-1288.02,4934.23-1290.69,4934.23-1294.58,4930.9z"/>
</g>
<g transform="translate(0.000000,128.000000) scale(0.100000,-0.100000)">
	<path class="st0" d="M2920.94,2256.81c-64.11-30.75-116.44-60.18-116.44-64.11c0-4.58,24.86-18.97,54.95-32.71l54.95-24.2
		l2.62-37.94c7.2-104.01,122.33-153.73,202.14-87c26.17,22.24,37.29,45.79,42.52,90.28c3.93,31.4,7.2,37.94,20.28,43.18
		c26.82,9.81,28.13,7.85,28.13-43.18c0-40.56-2.62-52.99-14.39-68.69c-11.12-15.05-12.43-21.59-6.54-27.47
		c5.89-5.89,10.47-5.23,19.62,3.27c11.12,9.81,12.43,9.81,22.9,0c8.5-8.5,13.08-9.16,18.97-3.27c5.89,5.89,4.58,11.78-6.54,27.47
		c-12.43,16.35-14.39,27.48-14.39,74.57v56.26l22.9,9.16c12.43,5.23,22.9,13.74,22.9,18.32c0,6.54-194.94,107.28-234.85,121.02
		C3038.69,2312.41,2984.4,2288.21,2920.94,2256.81z M3206.81,2193.35c0-7.2-8.5-15.05-20.93-20.28c-20.28-8.5-21.59-8.5-21.59,5.23
		c0,19.62-5.89,26.82-31.4,39.9c-50.37,25.51-138.03,24.2-191.67-2.62c-18.97-9.81-24.86-17.66-26.82-32.71l-1.96-19.62
		l-32.71,15.05l-32.71,15.05l94.85,45.79l94.85,45.79l85.04-39.9C3183.92,2215.6,3206.81,2201.86,3206.81,2193.35z M3114.57,2199.24
		c16.35-6.54,23.55-14.39,23.55-23.55c0-11.77-2.62-12.43-24.2-7.85c-13.74,2.62-47.1,5.23-73.92,5.23s-60.18-2.62-73.27-5.23
		c-22.24-4.58-24.86-3.93-24.86,7.85c0,15.7,2.62,17.66,46.45,30.09C3028.23,2216.9,3078.6,2214.29,3114.57,2199.24z
		 M3109.34,2142.98c27.48-7.2,28.78-8.5,28.78-32.05c0-33.36-24.86-77.85-52.33-92.24c-67.38-35.98-143.92,11.78-143.92,90.28
		c0,25.51,1.31,26.82,24.86,33.36C3000.75,2151.49,3074.02,2151.49,3109.34,2142.98z"/>
	<path class="st0" d="M2898.7,1961.13c-15.05-6.54-35.32-23.55-45.79-37.29l-18.97-24.2v-98.78v-98.78H3040h206.06v95.51
		c0,94.2,0,95.51-18.97,122.33c-32.71,47.1-55.6,53.64-187.75,53.64C2942.53,1973.55,2921.6,1971.59,2898.7,1961.13z
		 M3099.53,1929.73c-7.2-10.47-24.86-30.75-37.94-46.45l-24.86-27.47l-41.21,45.79l-41.21,45.79h79.15h79.15L3099.53,1929.73z
		 M3178.03,1932.34c36.63-24.2,45.14-49.72,45.14-134.1v-73.27l-184.48,1.31l-185.13,1.96v68.69c0,37.94,1.96,76.54,4.58,86.35
		c6.54,21.59,41.87,57.57,56.26,57.57c6.54,0,35.98-26.17,65.42-58.88c30.09-32.05,56.91-58.88,58.88-58.88
		c2.62,0,28.13,28.13,56.91,62.15c28.78,34.02,54.3,62.15,56.26,62.15C3153.82,1947.39,3165.6,1940.85,3178.03,1932.34z"/>
</g>
</svg>
