<?xml version="1.0" encoding="utf-8"?>
<!-- Generator: Adobe Illustrator 27.3.1, SVG Export Plug-In . SVG Version: 6.00 Build 0)  -->
<svg version="1.1" id="Layer_1" xmlns="http://www.w3.org/2000/svg" xmlns:xlink="http://www.w3.org/1999/xlink" x="0px" y="0px"
	 viewBox="0 0 114.99 115" style="enable-background:new 0 0 114.99 115;" xml:space="preserve">
<style type="text/css">
	.st0{fill:#FFFFFF;}
</style>
<g transform="translate(0.000000,128.000000) scale(0.100000,-0.100000)">
	<path class="st0" d="M984.05,1276.07c-3.6-3.6-6.31-47.76-6.31-97.32c0-81.1-1.8-92.82-18.02-101.83
		c-13.52-9.01-18.02-23.43-19.83-72.09l-2.7-61.28l-42.35-2.7c-46.86-2.7-49.56,0-29.74,34.24c13.52,23.43,18.02,78.4,8.11,103.63
		c-8.11,18.92-50.46,40.55-82,40.55c-36.05,0-63.98-22.53-73.89-58.57c-9.01-32.44,0.9-89.21,17.12-99.13
		c18.02-10.81,8.11-22.53-18.92-22.53c-37.85,0-60.38-13.52-107.24-63.98c-35.14-37.85-53.17-48.66-129.76-75.7
		c-72.99-26.13-100.93-31.54-159.5-31.54h-71.19l13.52,21.63c8.11,11.71,14.42,38.75,15.32,59.48c0.9,48.66-29.74,82-75.7,83.81
		c-69.39,1.8-104.53-57.67-76.6-128.86l13.52-34.24l-39.65-9.91C37.85,744.4,31.54,729.08,31.54,592.1
		c0.9-122.56,4.51-136.07,42.35-156.8c18.02-9.01,20.73-18.02,22.53-83.81c1.8-48.66,6.31-74.79,14.42-77.5
		c8.11-2.7,10.81,41.45,10.81,200.05c0,174.82-1.8,203.66-13.52,203.66c-10.81,0-13.52-18.02-13.52-108.14
		c0-63.08-3.6-108.14-9.01-108.14c-18.92,0-27.03,39.65-27.03,134.27c0,139.68-5.41,136.07,178.43,136.07
		c119.85,0,151.39,2.7,195.55,18.02c53.17,18.02,74.79,14.42,64.88-11.71c-6.31-16.22-107.24-51.37-146.89-51.37
		c-16.22,0-36.05-2.7-44.16-5.41c-24.33-9.91-40.55-54.07-40.55-109.94v-52.27l67.59-38.75l67.59-38.75v-53.17
		c0-51.37,12.62-75.7,27.94-52.27c9.01,14.42,10.81,90.11,2.7,110.84c-3.6,8.11-33.34,31.54-67.59,51.37l-62.18,36.05v53.17
		c0,60.38,10.81,72.09,64.88,72.09c38.75,0,265.84,75.7,287.46,95.52c16.22,14.42,17.12,9.01,18.92-172.12
		c1.8-140.58,5.41-188.34,14.42-191.94c8.11-2.7,10.81,45.06,10.81,218.08c0,121.65-2.7,221.68-6.31,221.68
		c-3.6,0-22.53-15.32-43.25-34.24c-19.83-18.92-53.17-39.65-72.99-45.06c-47.76-13.52-45.96-14.42-50.46,11.71
		c-3.6,18.02,0,22.53,23.43,27.94c18.02,3.6,45.96,24.33,80.2,61.28l51.37,54.97l142.38,4.51l141.48,4.51l4.51,67.59
		c3.6,60.38,6.31,67.59,22.53,67.59c17.12,0,18.02-6.31,18.02-90.11v-90.11l-55.87-4.51c-42.35-3.6-60.38-9.91-78.4-26.13
		c-21.63-20.73-23.43-27.94-23.43-99.13v-77.5l67.59-38.75l67.59-37.85v-67.59c0-54.97,2.7-67.59,13.52-67.59
		c11.71,0,13.52,12.62,11.71,78.4l-2.7,78.4l-63.08,36.95l-63.08,36.95l-2.7,59.48c-3.6,73.89,5.41,83.81,81.1,91.92
		c30.64,3.6,61.28,10.81,67.59,16.22c8.11,6.31,11.71,40.55,11.71,111.74c0,92.82-1.8,103.63-18.02,113.54
		c-13.52,9.01-18.02,21.63-18.02,54.07v42.35l70.29,2.7c63.98,2.7,69.39,4.51,66.68,20.73c-1.8,9.91-2.7,24.33-2.7,31.54
		c0,7.21,0.9,21.63,2.7,31.54c2.7,17.12-2.7,18.02-73.89,20.73C1025.5,1280.58,987.65,1279.67,984.05,1276.07z M1101.2,1227.41
		c0-26.13-1.8-27.03-44.16-27.03c-30.64,0-45.06,4.51-48.66,13.52c-10.81,28.84,3.6,40.55,48.66,40.55
		C1099.39,1254.44,1101.2,1253.54,1101.2,1227.41z M840.77,1066.1c25.23-30.64-6.31-109.04-44.16-109.04
		c-34.24,0-60.38,50.46-49.56,94.62C756.96,1091.34,813.73,1100.35,840.77,1066.1z M233.4,888.58
		c28.84-27.94,11.71-98.22-26.13-108.14c-35.14-9.01-58.57,17.12-58.57,63.98c0,19.83,4.51,41.45,10.81,47.76
		C174.82,907.5,217.18,905.7,233.4,888.58z"/>
	<path class="st0" d="M765.07,638.96c-1.8-6.31-2.7-63.98-1.8-128.86c2.7-96.42,5.41-116.25,16.22-116.25
		c10.81,0,14.42,18.92,16.22,105.43l2.7,105.43l48.66-28.84c47.76-27.03,48.66-27.94,51.37-72.99c1.8-33.34,6.31-45.96,16.22-45.96
		c9.91,0,14.42,12.62,16.22,50.46c2.7,57.67,2.7,57.67-99.13,114.45C772.28,654.28,771.38,655.18,765.07,638.96z"/>
	<path class="st0" d="M184.73,384.84c0-93.72,1.8-112.64,13.52-112.64c10.81,0,13.52,16.22,13.52,90.11
		c0,49.56,2.7,90.11,7.21,90.11c3.6,0,27.94-12.62,54.07-27.03c44.16-26.13,46.86-29.74,46.86-63.98
		c0-54.07,21.63-40.55,25.23,15.32l1.8,44.16l-68.49,38.75c-37.85,20.73-74.79,37.85-81.1,37.85
		C187.44,497.48,184.73,474.05,184.73,384.84z"/>
	<path class="st0" d="M839.86,383.04c-3.6-2.7-6.31-17.12-6.31-30.64v-25.23l-136.97-2.7c-135.17-2.7-137.87-2.7-140.58-22.53
		c-2.7-20.73-5.41-20.73-127.96-20.73c-68.49,0-130.67-2.7-138.78-5.41c-9.01-3.6-14.42-16.22-14.42-31.54v-25.23l-136.97-2.7
		L0,213.62v-39.65c0-47.76,19.83-61.28,24.33-17.12l2.7,29.74l123.46,2.7l123.46,2.7l2.7-29.74c1.8-18.92,7.21-29.74,16.22-29.74
		c9.91,0,14.42,13.52,16.22,56.77l2.7,55.87h120.75H553.3l2.7-55.87c1.8-43.25,6.31-56.77,16.22-56.77
		c10.81,0,14.42,16.22,16.22,83.81l2.7,82.91H711.9h120.75l2.7-82.91c1.8-67.59,5.41-83.81,16.22-83.81s13.52,19.83,16.22,115.35
		l2.7,115.35l123.46-2.7l123.46-2.7l2.7-115.35c1.8-86.51,5.41-114.45,13.52-111.74c7.21,1.8,11.71,40.55,13.52,130.67l2.7,127.96
		H997.56C913.76,389.35,842.57,386.64,839.86,383.04z"/>
</g>
<g transform="translate(0.000000,128.000000) scale(0.100000,-0.100000)">
	<path class="st0" d="M-7802.46-2698.43c-64.11-30.75-116.44-60.18-116.44-64.11c0-4.58,24.86-18.97,54.95-32.71l54.95-24.2
		l2.62-37.94c7.2-104.01,122.33-153.73,202.14-87c26.17,22.24,37.29,45.79,42.52,90.27c3.92,31.4,7.2,37.94,20.28,43.18
		c26.82,9.81,28.13,7.85,28.13-43.18c0-40.56-2.62-52.99-14.39-68.69c-11.12-15.05-12.43-21.59-6.54-27.48
		c5.89-5.89,10.47-5.23,19.62,3.27c11.12,9.81,12.43,9.81,22.9,0c8.5-8.5,13.08-9.16,18.97-3.27c5.89,5.89,4.58,11.78-6.54,27.48
		c-12.43,16.35-14.39,27.48-14.39,74.57v56.26l22.9,9.16c12.43,5.23,22.9,13.74,22.9,18.32c0,6.54-194.94,107.28-234.85,121.02
		C-7684.71-2642.83-7739.01-2667.03-7802.46-2698.43z M-7516.59-2761.88c0-7.2-8.5-15.05-20.93-20.28
		c-20.28-8.5-21.59-8.5-21.59,5.23c0,19.62-5.89,26.82-31.4,39.9c-50.37,25.51-138.03,24.2-191.67-2.62
		c-18.97-9.81-24.86-17.66-26.82-32.71l-1.96-19.62l-32.71,15.05l-32.71,15.05l94.85,45.79l94.85,45.79l85.04-39.9
		C-7539.49-2739.64-7516.59-2753.38-7516.59-2761.88z M-7608.83-2756c16.35-6.54,23.55-14.39,23.55-23.55
		c0-11.77-2.62-12.43-24.2-7.85c-13.74,2.62-47.1,5.23-73.92,5.23s-60.18-2.62-73.27-5.23c-22.24-4.58-24.86-3.93-24.86,7.85
		c0,15.7,2.62,17.66,46.45,30.09C-7695.18-2738.33-7644.81-2740.95-7608.83-2756z M-7614.06-2812.25
		c27.48-7.2,28.78-8.5,28.78-32.05c0-33.36-24.86-77.85-52.33-92.24c-67.38-35.98-143.92,11.78-143.92,90.28
		c0,25.51,1.31,26.82,24.86,33.36C-7722.65-2803.75-7649.39-2803.75-7614.06-2812.25z"/>
	<path class="st0" d="M-7824.7-2994.11c-15.05-6.54-35.32-23.55-45.79-37.29l-18.97-24.2v-98.78v-98.78h206.06h206.06v95.51
		c0,94.2,0,95.51-18.97,122.33c-32.71,47.1-55.6,53.64-187.75,53.64C-7780.87-2981.68-7801.81-2983.65-7824.7-2994.11z
		 M-7623.87-3025.51c-7.2-10.47-24.86-30.75-37.94-46.45l-24.86-27.48l-41.21,45.79l-41.21,45.79h79.15h79.15L-7623.87-3025.51z
		 M-7545.37-3022.9c36.63-24.2,45.14-49.72,45.14-134.1v-73.27l-184.48,1.31l-185.13,1.96v68.69c0,37.94,1.96,76.54,4.58,86.35
		c6.54,21.59,41.87,57.57,56.26,57.57c6.54,0,35.98-26.17,65.42-58.88c30.09-32.05,56.91-58.88,58.88-58.88
		c2.62,0,28.13,28.13,56.91,62.15s54.3,62.15,56.26,62.15S-7557.8-3014.39-7545.37-3022.9z"/>
</g>
<g transform="translate(0.000000,512.000000) scale(0.100000,-0.100000)">
	<path class="st0" d="M-9285.91,962.12c-3.28-0.88-8.1-3.21-11.17-5.55c-2.77-2.19-7.74-3.94-10.95-3.94c-1.31,0-4.6,0.51-7.37,1.17
		c-7.15,1.68-13.06,1.02-19.7-2.26c-5.25-2.55-8.1-5.25-13.57-12.7c-2.92-4.09-7.52-6.49-14.08-7.44
		c-12.62-1.75-22.77-10.87-25.18-22.55c-1.61-7.88-5.04-12.33-12.26-15.98c-4.52-2.34-9.63-7.74-12.19-12.84
		c-2.04-4.23-2.12-4.67-2.19-15.69c0-12.62-0.37-13.87-4.74-19.12c-9.05-10.8-10.14-21.89-3.5-35.32
		c3.58-7.22,3.94-11.68,1.46-18.83c-4.16-11.82-0.44-23.86,10.22-33.2c5.55-4.89,6.86-7.74,7.88-17.15
		c1.46-14.08,7.95-22.04,21.89-26.78c4.38-1.53,8.83-4.6,8.83-6.06c0-0.51-6.93-17.66-15.4-38.09
		c-14.52-35.03-15.4-37.36-15.11-40.94c0.44-4.74,3.21-8.61,7.74-10.58c4.38-1.97,5.84-1.68,25.98,4.52
		c12.55,3.87,16.93,4.96,17.66,4.31c0.51-0.44,4.6-7.74,9.12-16.2c4.45-8.54,8.98-16.42,10.07-17.59c5.04-5.47,13.35-5.4,18.54,0.07
		c1.39,1.53,7.08,14.38,17.95,40.65c8.83,21.16,16.2,38.68,16.42,38.9c0.22,0.29,0.66,0.29,0.88,0c0.22-0.22,7.59-17.73,16.35-38.9
		c10.95-26.34,16.64-39.12,18.02-40.65c5.18-5.47,13.5-5.55,18.54-0.07c1.09,1.17,5.62,9.05,10.07,17.59
		c4.52,8.47,8.61,15.76,9.19,16.27c0.73,0.58,4.89-0.44,17.66-4.38c20.14-6.2,21.53-6.49,25.91-4.52c4.53,1.97,7.3,5.84,7.74,10.58
		c0.29,3.58-0.58,5.91-15.11,40.94c-8.46,20.43-15.4,37.58-15.4,38.09c0,1.46,4.45,4.52,8.83,6.06c6.35,2.19,10.07,4.31,13.72,8.03
		c5.11,5.04,7.3,10.07,8.17,18.75c1.02,9.41,2.33,12.26,7.88,17.15c10.8,9.41,14.16,20.58,10.14,33.2
		c-2.41,7.74-2.12,11.53,1.61,18.9c6.57,13.35,5.47,24.52-3.58,35.25c-4.52,5.33-5.25,8.25-4.74,18.68
		c0.44,7.81,0.29,9.34-1.02,13.14c-1.97,5.47-6.42,11.31-10.65,14.01c-1.82,1.17-4.82,3.07-6.64,4.16
		c-4.01,2.55-6.64,6.79-8.32,13.5c-3.07,12.48-12.48,20.94-25.18,22.7c-6.5,0.95-11.17,3.36-14.08,7.44
		c-5.47,7.44-8.32,10.14-13.57,12.7c-6.64,3.28-12.55,3.94-19.7,2.26c-2.77-0.66-6.06-1.17-7.37-1.17c-3.28,0-8.17,1.82-11.17,4.09
		c-4.67,3.58-10.14,5.55-16.13,5.84C-9280.59,962.71-9284.38,962.49-9285.91,962.12z M-9273.22,950.81
		c1.68-0.66,4.23-1.97,5.55-2.99c7.22-5.55,15.4-7.08,25.76-4.96c5.62,1.09,7.15,1.17,10.07,0.36c4.96-1.31,8.46-3.87,11.75-8.68
		c5.04-7.52,11.09-11.6,19.41-13.21c13.57-2.7,17.22-5.69,20.07-16.49c2.63-9.92,7.52-16.42,15.4-20.43
		c4.31-2.26,7.81-5.77,9.49-9.56c1.17-2.48,1.31-4.67,1.17-13.5c-0.15-9.78,0-10.8,1.68-14.52c0.95-2.19,3.14-5.69,4.82-7.74
		c4.89-5.98,5.69-8.03,5.69-13.79c0-4.52-0.29-5.77-3.07-10.95c-4.67-9.12-5.33-16.71-2.04-25.83c1.61-4.31,1.46-10.65-0.22-14.38
		c-0.8-1.68-2.77-4.31-4.53-5.84c-9.78-8.76-11.89-12.7-13.35-24.37c-1.46-11.53-4.82-16.42-13.21-18.97
		c-9.12-2.77-15.69-8.39-19.56-16.78c-3.14-6.64-5.04-8.9-9.41-11.31c-3.36-1.82-4.52-2.04-11.82-2.19
		c-11.24-0.22-15.33-1.82-23.43-9.12c-2.7-2.48-6.06-4.96-7.37-5.55c-4.16-1.75-10-1.31-16.2,1.31c-4.96,2.04-6.42,2.34-12.55,2.34
		s-7.59-0.29-12.55-2.34c-6.2-2.63-12.04-3.06-16.2-1.31c-1.31,0.58-4.67,3.07-7.37,5.55c-8.1,7.3-12.19,8.9-23.42,9.12
		c-7.3,0.15-8.47,0.36-11.82,2.19c-4.38,2.41-6.28,4.67-9.41,11.31c-3.87,8.39-10.44,14.01-19.56,16.78
		c-8.39,2.55-11.75,7.37-13.14,18.9c-1.46,11.68-3.58,15.54-13.43,24.52c-1.75,1.61-3.79,4.23-4.52,5.84
		c-1.68,3.65-1.75,10.07-0.22,14.3c3.28,9.12,2.63,16.71-2.04,25.83c-2.77,5.18-3.07,6.42-3.07,10.95c0,5.77,0.8,7.81,5.69,13.79
		c1.68,2.04,3.87,5.55,4.82,7.74c1.68,3.72,1.82,4.74,1.68,14.52c-0.15,8.83,0,11.02,1.17,13.5c1.68,3.79,5.18,7.3,9.49,9.56
		c7.81,4.01,12.77,10.51,15.4,20.36c1.68,6.2,3.07,8.68,6.71,11.75c2.92,2.48,4.67,3.14,11.53,4.31
		c9.49,1.68,15.91,5.84,21.24,13.72c3.28,4.82,6.79,7.37,11.75,8.68c2.92,0.8,4.45,0.73,10.07-0.36
		c10.36-2.12,18.54-0.58,25.76,4.96C-9285.48,951.76-9279.05,952.85-9273.22,950.81z M-9364.29,694.01
		c0.73-1.9,7.74-6.86,11.97-8.47c3.28-1.31,5.98-1.68,12.26-1.75c9.49-0.22,11.82-1.09,18.75-7.52c2.41-2.19,6.2-4.89,8.54-5.98
		c3.58-1.68,5.04-1.9,11.6-1.9c6.35,0,7.37-0.15,7.08-1.09c-2.55-6.86-27.15-65.61-27.8-66.34c-0.51-0.51-1.39-0.8-1.97-0.58
		c-0.58,0.22-4.74,7.52-9.34,16.27c-4.6,8.68-9.41,16.93-10.65,18.24c-2.7,2.7-7.3,4.31-10.73,3.65c-1.31-0.22-9.78-2.77-18.97-5.62
		c-9.2-2.77-17.15-4.96-17.73-4.67c-0.73,0.22-1.02,1.02-0.8,2.04c0.51,2.48,26.42,64.73,26.93,64.73
		C-9364.87,695.03-9364.51,694.59-9364.29,694.01z M-9179.51,663.5c7.15-17.37,13.21-32.33,13.35-33.2
		c0.22-1.02-0.07-1.82-0.73-2.04c-0.66-0.29-8.54,1.9-17.66,4.67c-9.12,2.85-17.66,5.33-18.97,5.55c-3.58,0.73-8.17-0.8-10.87-3.58
		c-1.24-1.31-6.13-9.56-10.66-18.32c-4.6-8.68-8.83-16.05-9.41-16.2c-0.51-0.22-1.39,0.07-1.9,0.58
		c-0.66,0.73-25.25,59.48-27.8,66.34c-0.29,0.95,0.73,1.09,7.08,1.09c6.64,0,8.03,0.22,11.82,2.04c2.33,1.09,6.28,3.87,8.83,6.2
		c6.57,6.13,8.61,6.93,18.24,7.15c6.28,0.07,8.98,0.44,12.26,1.75c4.23,1.61,11.24,6.57,11.97,8.47c0.22,0.58,0.58,1.02,0.88,1.02
		S-9186.74,680.8-9179.51,663.5z"/>
	<path class="st0" d="M-9296.64,923.15c-33.93-6.06-61.81-25.91-78.6-55.9c-5.62-9.92-11.75-29.12-12.11-37.73
		c-0.15-3.43,0.07-4.16,1.61-5.4c2.19-1.75,5.55-1.75,7.22-0.07c0.88,0.88,1.83,3.87,2.63,8.25c7.22,39.7,36.27,69.77,76.7,79.18
		c4.67,1.09,8.68,1.39,20.43,1.39c13.43,0,15.18-0.15,22.48-2.04c28.83-7.22,52.25-25.91,65.39-52.18
		c3.28-6.49,7.08-18.24,8.54-26.34c0.8-4.38,1.75-7.37,2.63-8.25c1.68-1.68,5.04-1.68,7.22,0.07c2.12,1.68,2.12,4.6,0.29,13.43
		c-8.76,42.25-41.82,75.24-85.02,84.8C-9264.68,924.03-9289.05,924.47-9296.64,923.15z"/>
	<path class="st0" d="M-9282.41,893.52c-4.38-1.31-5.77-3.79-13.5-25.18c-4.09-11.24-7.66-20.73-7.95-21.02
		c-0.29-0.29-9.92-0.88-21.31-1.31c-11.38-0.36-21.82-0.88-23.13-1.09c-3.36-0.51-7.22-4.16-8.25-7.74
		c-0.66-2.41-0.51-3.58,0.44-6.2c1.09-2.85,3.14-4.67,19.05-17.08c9.78-7.66,17.81-14.16,17.81-14.38c0-0.29-2.63-9.71-5.84-20.94
		c-3.21-11.24-5.84-21.75-5.84-23.35c0-6.79,6.79-11.75,13.06-9.63c1.46,0.51,10.65,6.28,20.29,12.77
		c9.71,6.49,18.03,11.82,18.46,11.82c0.44,0,8.76-5.33,18.46-11.82c9.63-6.49,18.83-12.26,20.29-12.77
		c6.28-2.12,13.06,2.85,13.06,9.63c0,1.61-2.63,12.11-5.84,23.35c-3.21,11.24-5.84,20.65-5.84,20.87c0,0.29,8.03,6.79,17.73,14.38
		c18.9,14.74,19.92,15.84,19.78,21.53c-0.15,3.07-1.75,5.77-4.96,8.1c-1.82,1.39-3.5,1.61-18.17,2.12
		c-8.9,0.29-19.34,0.8-23.13,1.09l-6.86,0.51l-7.37,20.14c-4.09,11.09-7.95,21.02-8.61,22.04
		C-9273.07,893.16-9277.96,894.84-9282.41,893.52z M-9271.46,861.34c3.94-10.87,7.81-20.58,8.61-21.53
		c2.77-3.58,4.16-3.87,26.85-4.67c11.82-0.44,21.75-0.88,22.11-1.02c0.36-0.07-7.08-6.2-16.57-13.57
		c-9.41-7.44-17.73-14.38-18.32-15.47c-0.66-1.02-1.17-3.14-1.17-4.74c0-1.53,2.55-11.82,5.77-22.84
		c3.14-11.02,5.62-20.14,5.55-20.29c-0.15-0.15-8.17,5.04-17.88,11.53c-9.78,6.57-18.83,12.19-20.14,12.62
		c-1.68,0.51-3.28,0.51-4.89,0c-1.31-0.36-10.36-6.06-20.14-12.55c-9.71-6.49-17.81-11.75-17.95-11.6
		c-0.07,0.15,2.41,9.27,5.55,20.29c3.21,11.02,5.76,21.38,5.76,22.99c0,1.61-0.58,3.79-1.31,4.89c-0.73,1.09-8.98,7.95-18.32,15.33
		c-9.34,7.3-16.71,13.35-16.42,13.5c0.37,0.07,10.29,0.51,22.11,0.95c22.7,0.8,24.08,1.09,26.86,4.67
		c0.8,0.95,4.67,10.65,8.61,21.53c3.94,10.87,7.37,19.78,7.66,19.78S-9275.41,872.22-9271.46,861.34z"/>
	<path class="st0" d="M-9385.45,806.39c-2.41-2.12-2.48-4.89-0.29-14.81c4.67-20.8,14.01-37.58,29.56-53.2
		c16.13-16.05,33.5-25.47,56.19-30.36c10.58-2.26,31.16-2.26,41.74,0c22.77,4.89,39.99,14.23,56.19,30.36
		c15.54,15.54,24.67,31.96,29.41,52.98c2.55,11.38,2.55,12.19,0.15,14.67c-2.55,2.55-4.45,2.7-6.93,0.51
		c-1.53-1.39-2.04-2.99-2.99-8.47c-3.14-18.46-12.33-36.56-25.76-50.65c-13.43-14.01-30.28-23.5-49.99-28.1
		c-7.15-1.68-9.71-1.97-20.94-1.97s-13.79,0.29-20.94,1.97c-18.46,4.31-33.79,12.48-47.22,25.32
		c-14.6,13.94-25.32,34.01-28.61,53.56c-0.88,5.33-1.46,6.93-2.92,8.32C-9381.15,808.58-9382.9,808.58-9385.45,806.39z"/>
</g>
<g transform="translate(0.000000,128.000000) scale(0.100000,-0.100000)">
	<path class="st0" d="M-3932.36-585.35c-26.77-8.13-60.73-34.91-75.55-59.3c-10.99-17.7-14.83-30.13-16.26-53.56
		c-2.87-44.47,1.43-58.82,30.13-102.34l26.3-39.69v-45.91c0-46.39,0-46.39,15.78-61.69c15.3-14.83,17.21-15.3,56.43-15.3
		c39.69,0,41.12,0.48,55.95,15.78s15.3,16.26,15.3,61.69v46.39l22,32.51c30.13,43.52,35.38,57.86,35.38,96.12
		c0,53.56-23.91,91.33-73.64,116.68C-3862.55-582.95-3909.41-578.18-3932.36-585.35z M-3847.72-617.87
		c16.26-8.13,31.08-21.04,40.17-33.95c13.39-18.65,14.35-23.91,14.35-60.25v-39.69l-24.39-35.38
		c-13.39-19.13-25.82-39.69-27.74-45.42c-2.87-8.61-7.17-10.99-20.08-10.99h-16.26v51.64c0,45.91,0.95,53.08,9.56,60.73
		c19.13,17.21,8.61,37.78-11.96,24.39c-10.99-7.17-12.91-7.17-23.91,0c-20.57,13.39-31.08-7.17-11.96-24.39
		c8.61-7.65,9.56-14.83,9.56-60.73v-51.64h-16.26c-12.91,0-17.21,2.39-20.08,10.99c-1.92,5.74-14.35,26.3-27.74,45.42l-24.39,35.38
		v39.69c0,36.35,0.95,41.6,14.35,60.25c19.13,26.77,57.38,47.34,88.46,47.34C-3880.25-604.47-3865.42-608.78-3847.72-617.87z
		 M-3848.21-879.43v-11.96h-47.82h-47.81v11.96v11.96h47.82h47.82v-11.96H-3848.21z M-3848.21-918.64c0-1.43-3.35-7.17-8.13-11.96
		c-15.78-17.7-87.51-8.61-87.51,11.48c0,1.92,21.52,3.82,47.82,3.82C-3869.72-915.29-3848.21-916.72-3848.21-918.64z"/>
	<path class="st0" d="M-4071.51-603.04c-11.96-4.3-6.22-18.65,10.52-27.26c18.17-10.04,30.13-5.74,24.87,8.61
		C-4039.48-612.61-4063.87-600.17-4071.51-603.04z"/>
	<path class="st0" d="M-3742.53-609.74c-14.83-9.09-19.13-20.08-9.56-26.3c7.65-4.3,37.78,13.39,37.78,22.47
		C-3714.32-601.13-3725.8-599.7-3742.53-609.74z"/>
	<path class="st0" d="M-4103.07-706.33c-4.79-11.96,4.3-18.17,23.43-16.73c14.83,0.95,18.65,3.35,18.65,10.99
		c0,7.64-3.82,10.04-19.6,10.99C-4093.99-700.12-4101.16-701.55-4103.07-706.33z"/>
	<path class="st0" d="M-3731.54-707.29c-4.3-11.48,2.39-16.73,22-16.73c17.7,0,24.39,5.74,20.57,18.17
		C-3692.32-697.72-3728.18-698.2-3731.54-707.29z"/>
	<path class="st0" d="M-4064.34-794.8c-14.35-8.61-17.7-22-6.69-26.3c10.04-3.82,37.3,14.83,35.38,24.39
		C-4037.57-785.71-4048.56-785.23-4064.34-794.8z"/>
	<path class="st0" d="M-3754.01-789.53c-7.17-6.69-2.87-16.26,11.48-24.87c8.61-5.26,18.17-8.13,21.52-6.69
		c11.48,4.3,7.17,17.7-8.13,26.77C-3744.92-785.23-3749.22-784.76-3754.01-789.53z"/>
	<path class="st0" d="M-4075.34-1011.41c-29.64-11.96-58.82-20.57-76.51-22c-32.99-2.87-40.65-9.56-40.65-35.38
		c0-10.04-1.92-19.6-4.79-21.04c-2.39-1.43-4.77-17.7-4.77-35.86c0-25.34,1.92-32.99,7.65-35.38c4.3-1.43,61.69-2.87,127.68-2.87
		h120.02l13.86-12.91c19.6-19.13,54.03-19.13,73.64,0l13.86,12.91h120.02c65.99,0,123.37,1.43,127.68,2.87
		c5.74,2.39,7.65,10.04,7.65,35.38c0,18.17-2.39,34.43-4.79,35.86c-2.39,1.43-4.79,10.99-4.79,21.04c0,25.82-7.65,32.51-40.65,35.38
		c-17.7,1.43-47.34,10.04-76.98,22c-75.55,30.61-119.07,26.77-159.24-13.39l-19.6-19.6l-18.17,18.17
		C-3955.8-984.63-3999.79-980.81-4075.34-1011.41z M-3951.49-1027.19c22.47-12.91,41.12-36.35,41.12-50.69
		c0-9.56-2.39-9.56-126.72-9.56h-126.71v14.35c0,11.96,1.92,14.35,11.48,14.35c15.3,0,68.38,16.73,99.47,31.08
		C-4018.44-1011.41-3978.27-1011.41-3951.49-1027.19z M-3739.18-1027.67c31.08-14.35,84.16-31.08,99.47-31.08
		c9.56,0,11.48-2.39,11.48-14.35v-14.35h-126.72h-126.72v10.99c0.48,13.39,21.04,37.78,43.04,50.69
		C-3814.73-1011.41-3772.17-1012.37-3739.18-1027.67z M-3909.41-1120.91c7.65-12.43,19.13-12.43,26.77,0
		c5.74,9.09,10.99,9.56,137.24,9.56h131.5v-14.35v-14.35h-122.41h-122.42l-13.39-14.35c-7.17-7.65-18.17-14.35-23.91-14.35
		c-5.74,0-16.73,6.69-23.91,14.35l-13.39,14.35h-122.41h-122.42v14.35v14.35h131.5
		C-3920.42-1111.34-3915.15-1111.82-3909.41-1120.91z"/>
</g>
<g transform="translate(0.000000,128.000000) scale(0.100000,-0.100000)">
	<path class="st0" d="M-4915.44,2874.65c-25.01-7.59-56.73-32.61-70.57-55.39c-10.27-16.53-13.85-28.14-15.19-50.03
		c-2.68-41.54,1.34-54.94,28.14-95.59l24.57-37.07v-42.88c0-43.33,0-43.33,14.74-57.62c14.29-13.85,16.08-14.29,52.71-14.29
		c37.07,0,38.41,0.45,52.26,14.74c13.85,14.29,14.29,15.19,14.29,57.62v43.33l20.55,30.37c28.14,40.65,33.05,54.05,33.05,89.78
		c0,50.03-22.33,85.31-68.79,108.99C-4850.23,2876.89-4894,2881.35-4915.44,2874.65z M-4836.38,2844.28
		c15.19-7.59,29.03-19.65,37.52-31.71c12.51-17.42,13.4-22.33,13.4-56.28v-37.07l-22.78-33.05c-12.51-17.87-24.12-37.07-25.91-42.43
		c-2.68-8.04-6.7-10.27-18.76-10.27h-15.19v48.24c0,42.88,0.89,49.58,8.93,56.73c17.87,16.08,8.04,35.29-11.17,22.78
		c-10.27-6.7-12.06-6.7-22.33,0c-19.21,12.51-29.03-6.7-11.17-22.78c8.04-7.15,8.93-13.85,8.93-56.73v-48.24h-15.19
		c-12.06,0-16.08,2.23-18.76,10.27c-1.79,5.36-13.4,24.57-25.91,42.43l-22.78,33.05v37.07c0,33.95,0.89,38.86,13.4,56.28
		c17.87,25.01,53.6,44.22,82.63,44.22C-4866.76,2856.79-4852.91,2852.77-4836.38,2844.28z M-4836.83,2599.96v-11.17h-44.67h-44.66
		v11.17v11.17h44.67h44.67L-4836.83,2599.96L-4836.83,2599.96z M-4836.83,2563.33c0-1.34-3.13-6.7-7.59-11.17
		c-14.74-16.53-81.74-8.04-81.74,10.72c0,1.79,20.1,3.57,44.67,3.57C-4856.93,2566.46-4836.83,2565.12-4836.83,2563.33z"/>
	<path class="st0" d="M-5045.42,2858.13c-11.17-4.02-5.81-17.42,9.83-25.46c16.97-9.38,28.14-5.36,23.23,8.04
		C-5015.5,2849.19-5038.28,2860.81-5045.42,2858.13z"/>
	<path class="st0" d="M-4738.12,2851.87c-13.85-8.49-17.87-18.76-8.93-24.57c7.15-4.02,35.29,12.51,35.29,20.99
		C-4711.77,2859.91-4722.49,2861.25-4738.12,2851.87z"/>
	<path class="st0" d="M-5074.9,2761.65c-4.47-11.17,4.02-16.97,21.89-15.63c13.85,0.89,17.42,3.13,17.42,10.27
		c0,7.14-3.57,9.38-18.31,10.27C-5066.41,2767.45-5073.11,2766.11-5074.9,2761.65z"/>
	<path class="st0" d="M-4727.85,2760.75c-4.02-10.72,2.23-15.63,20.55-15.63c16.53,0,22.78,5.36,19.21,16.97
		C-4691.22,2769.69-4724.72,2769.24-4727.85,2760.75z"/>
	<path class="st0" d="M-5038.72,2679.01c-13.4-8.04-16.53-20.55-6.25-24.57c9.38-3.57,34.84,13.85,33.05,22.78
		C-5013.71,2687.5-5023.98,2687.95-5038.72,2679.01z"/>
	<path class="st0" d="M-4748.84,2683.93c-6.7-6.25-2.68-15.19,10.72-23.23c8.04-4.91,16.97-7.59,20.1-6.25
		c10.72,4.02,6.7,16.53-7.59,25.01C-4740.35,2687.95-4744.37,2688.39-4748.84,2683.93z"/>
	<path class="st0" d="M-5048.99,2476.68c-27.69-11.17-54.94-19.21-71.47-20.55c-30.82-2.68-37.97-8.93-37.97-33.05
		c0-9.38-1.79-18.31-4.47-19.65c-2.23-1.34-4.46-16.53-4.46-33.5c0-23.67,1.79-30.82,7.15-33.05c4.02-1.34,57.62-2.68,119.26-2.68
		h112.11l12.95-12.06c18.31-17.87,50.47-17.87,68.79,0l12.95,12.06h112.11c61.64,0,115.24,1.34,119.26,2.68
		c5.36,2.23,7.15,9.38,7.15,33.05c0,16.97-2.23,32.16-4.47,33.5c-2.23,1.34-4.47,10.27-4.47,19.65c0,24.12-7.15,30.37-37.97,33.05
		c-16.53,1.34-44.22,9.38-71.91,20.55c-70.57,28.59-111.22,25.01-148.74-12.51l-18.31-18.31l-16.97,16.97
		C-4937.33,2501.69-4978.42,2505.26-5048.99,2476.68z M-4933.31,2461.94c20.99-12.06,38.41-33.95,38.41-47.35
		c0-8.93-2.23-8.93-118.37-8.93h-118.36v13.4c0,11.17,1.79,13.4,10.72,13.4c14.29,0,63.87,15.63,92.91,29.03
		C-4995.84,2476.68-4958.32,2476.68-4933.31,2461.94z M-4734.99,2461.49c29.03-13.4,78.61-29.03,92.91-29.03
		c8.93,0,10.72-2.23,10.72-13.4v-13.4h-118.37h-118.37v10.27c0.45,12.51,19.65,35.29,40.2,47.35
		C-4805.56,2476.68-4765.81,2475.78-4734.99,2461.49z M-4894,2374.39c7.15-11.61,17.87-11.61,25.01,0
		c5.36,8.49,10.27,8.93,128.19,8.93h122.83v-13.4v-13.4h-114.34h-114.35l-12.51-13.4c-6.7-7.15-16.97-13.4-22.33-13.4
		s-15.63,6.25-22.33,13.4l-12.51,13.4h-114.34h-114.35v13.4v13.4h122.83C-4904.28,2383.33-4899.36,2382.88-4894,2374.39z"/>
</g>
</svg>
