<?xml version="1.0" encoding="UTF-8"?>
<svg id="Layer_1" data-name="Layer 1" xmlns="http://www.w3.org/2000/svg" viewBox="0 0 200 179">
  <defs>
    <style>
      .cls-1 {
        fill: #fff;
      }
    </style>
  </defs>
  <path class="cls-1" d="m63.63,66.15l16.18,7.64v17.91c0,.93.75,1.68,1.68,1.68h53.12c.93,0,1.68-.75,1.68-1.68v-17.91l13.78-6.5v12c-1.96.7-3.36,2.53-3.36,4.72,0,2.79,2.25,5.03,5.03,5.03s5.03-2.25,5.03-5.03c0-2.19-1.42-4.03-3.36-4.72v-14.63c0-.28-.1-.57-.23-.8-.03-.05-.08-.1-.13-.18-.15-.21-.31-.36-.54-.46-.03,0-.05-.05-.08-.05l-43.7-21.06c-.46-.23-1.01-.23-1.47,0l-43.7,21.06c-.57.28-.95.88-.95,1.52s.39,1.24.95,1.5l.05-.03Zm69.3,23.87h-49.76v-23.62l4.9-.77c13.27-2.14,26.71-2.14,39.98,0l4.9.77v23.62h-.03Zm18.82-4.34c-.93,0-1.68-.75-1.68-1.68s.75-1.68,1.68-1.68,1.68.75,1.68,1.68-.75,1.68-1.68,1.68Zm-43.7-40.26l39.8,19.18-11.56,5.45v-5.11c0-.21-.05-.44-.13-.62-.03-.08-.08-.13-.1-.18-.05-.13-.13-.23-.23-.34-.05-.05-.13-.1-.18-.15-.1-.08-.18-.15-.31-.21-.08-.05-.15-.05-.26-.08-.08,0-.13-.05-.21-.08l-6.3-1.01c-13.63-2.19-27.44-2.19-41.04,0l-6.3,1.01s-.13.05-.21.08c-.08.03-.18.05-.26.08-.1.05-.21.13-.31.21-.05.05-.13.1-.18.15-.1.1-.15.21-.21.34-.03.05-.08.13-.1.18-.08.21-.13.39-.13.62v5.11l-11.56-5.45,39.8-19.18h-.03Z"/>
  <path class="cls-1" d="m52.72,159.06h110.67c.93,0,1.68-.75,1.68-1.68v-36.88c0-.93-.75-1.68-1.68-1.68h-35.2v-18.45c0-.93-.75-1.68-1.68-1.68h-36.88c-.93,0-1.68.75-1.68,1.68v26.84h-35.2c-.93,0-1.68.75-1.68,1.68v28.52c0,.93.75,1.68,1.68,1.68l-.03-.03Zm108.99-36.88v33.55h-33.55v-33.55h33.55Zm-70.43-20.13h33.55v53.66h-33.55s0-53.66,0-53.66Zm-36.88,28.52h33.55v25.16h-33.55v-25.16Z"/>
</svg>